<svg xmlns="http://www.w3.org/2000/svg" id="Layer_1" data-name="Layer 1" viewBox="0 0 755.13 834.52">
  <style>
    path {
      fill: white;
    }
  </style>
  <path d="m751.9,452.34c.94-5.72,3.23-11.35,3.23-17.06.01-101.48-21.56-135-21.63-135.15-4.56-9.46-8.38-19.39-13.92-28.25-5.2-8.32-12.07-15.62-18.51-23.12-1.97-2.3-5.07-3.6-7.39-5.65-5.88-5.2-11.24-11.07-17.5-15.76-10.59-7.94-22.22-14.28-34.47-19.38-7.73-3.22-10.27-6.85-10.27-15.21-.01-3.66,0-7.33,0-11,.28-.03-.85-15.58-2.17-23.23-.8-4.67-11.2-48.96-18.8-58.97-6.1-8.05-11.71-15.62-18.14-22.84-7.55-8.49-16.1-16.08-24.33-23.94-2.37-2.28-9.07-7.14-11.77-9.03-4.05-2.83-24.27-15.12-32.46-19.45-9.28-4.91-32.77-12.28-34.4-12.56-6.32-1.07-21.6-5.93-23.24-6.14-7.9-1.03-29-5.19-31.73-5.44-14.25-1.3-26.08,5.76-37.53,12.52-4.7,2.78-9.15,4.87-14.2,4.83-6.56-.05-13.51-.08-19.57-2.2-7.86-2.76-14.94-7.69-22.46-11.48-8.89-4.49-18.11-4.81-27.63-2-4.56,1.34-9.29,2.16-13.99,2.91-5.07.81-10.28.88-15.28,1.95-5.43,1.16-10.72,3.03-16.02,4.74-7.84,2.52-15.77,4.81-23.41,7.85-6.8,2.71-12.96,7.57-19.93,9.22-9.73,2.3-16.81,8.9-24.42,13.91-13.52,8.89-45.01,44.51-51.3,54.9-24.47,40.43-18.87,85.14-35.03,110.53-5.27,8.3-46.71,35.67-76.91,63.4C15.43,290.8,3.83,346.69.55,370.79c-1.69,12.5.9,57.66,2.86,85.97,1.65,23.99,27.22,74.38,31.76,81.37,7.22,11.1,12.62,17.59,23.3,28.88,11.27,11.91,24.05,22.19,39.32,28.88,1.05.46,11.24,7.35,15.76,9.18,5.88,2.37,7.52,4.66,7.38,11.18-.14,6.3,3.82,36.97,4.53,43.05,2.23,18.88,5.61,31.88,5.83,32.67,1.13,3.96,2.07,8.01,3.56,11.84,2.61,6.71,5.35,13.4,8.45,19.9,3.21,6.73,6.57,13.43,10.5,19.75,4.47,7.17,9.36,14.13,14.6,20.75,4.2,5.29,8.8,10.43,13.95,14.75,6.2,5.21,13.2,9.45,19.81,14.17,2.42,1.73,4.55,3.9,7.09,5.42,6.1,3.64,12.33,7.06,18.57,10.45,1.43.78,3.17.96,4.69,1.59,2.55,1.04,5.03,2.25,7.56,3.36,1.8.78,3.61,1.55,5.44,2.26,2.91,1.12,5.81,2.3,8.78,3.28,8.42,2.78,25.65,8.23,25.81,8.24,6.83.35,13.54.92,19.8,4.32,2.22,1.2,5.14,1.33,7.77,1.53,5.98.45,11.97.63,17.96.91,4.95.24,9.35-.66,13.56-3.85,4.4-3.34,9.55-5.68,14.39-8.42,5.03-2.85,10.38-5.25,15.04-8.6,4.27-3.06,8.82-4.14,13.15-2.12,8.65,4.04,17.06,8.68,25.27,13.57,7.27,4.32,13.91,9.7,23.17,8.92,7.92-.66,15.93-.43,23.79-1.45,8.34-1.07,16.79-2.39,24.73-5,7.01-2.31,13.98-4.41,21.16-6.22,7.83-1.97,42.35-18.78,51.47-24.59,8.5-5.41,33.57-27.91,37.73-32.99,25.17-30.69,40.73-91.15,41.66-115.54.46-11.93.67-25.74.94-37.69.03-1.3,1.73-3.11,3.09-3.74,9.08-4.21,18.78-7.05,27.13-12.85,6.88-4.78,14.26-8.92,20.75-14.17,6.95-5.61,13.11-12.19,19.62-18.34,2.03-1.93,4.47-3.56,6.06-5.8,5.36-7.52,10.63-15.12,15.53-22.96,3.58-5.72,6.86-11.7,9.62-17.86,2.62-5.82,4.39-12.02,6.55-18.04.23-.62.62-1.18.92-1.77,4.84-9.39,6.06-19.96,9.7-29.74.11-.3.02-.66.05-.99.38-3.98.54-7.99,1.19-11.91ZM480.38,102.17c5.7.12,10.29,4.78,10.29,10.52,0,.8-.1,1.57-.27,2.32-.41,4.88-5.45,9.78-10.2,9.73-5.23-.06-10.01-4.79-10.37-10.1-.39-2.1-.24-4.38,1.15-6.83,1.93-3.4,5.48-5.72,9.4-5.64Zm-15.55,630.29c-6.3,0-11.41-5.11-11.41-11.41s5.11-11.41,11.41-11.41,11.41,5.11,11.41,11.41-5.11,11.41-11.41,11.41Zm271.43-297.98c-.02,7.23-.85,8.11-8.03,8.1-21.32-.03-42.65.09-63.95-.51-2.1-.06-4.56-2.03-6.44-4.16-4.99-8.89-14.19-14.86-24.73-14.86-11.48,0-21.39,7.09-25.97,17.33-2.19,4.38-3.23,9.47-2.7,15.05.08.81.19,1.6.32,2.38,2.12,14.45,14,25.52,28.35,25.52,10.95,0,20.47-6.45,25.3-15.93,4.35-3.86,9.65-5.36,16.51-4.97,16.12.93,32.32.3,48.48.27,6.55-.01,8.23,1.89,6.66,8.07-1.92,7.54-3.23,15.35-6.16,22.48-3.67,8.91-8.67,17.29-13.23,25.83-1.64,3.07-3.35,6.2-5.56,8.85-6.58,7.85-13.14,15.75-20.24,23.12-6.63,6.88-13.34,13.96-21.12,19.39-9.03,6.3-19.26,10.87-28.96,16.22-1.87,1.03-3.69,2.15-5.48,3.32-3.11,2.05-5.68,1.9-8.29-1.11-6.17-7.13-12.47-14.15-18.88-21.07-7.45-8.03-15-15.97-22.63-23.83-11.43-11.78-22.92-23.51-34.52-35.14-1.97-1.98-2.75-4-2.38-6.13.28-.72.53-1.45.76-2.2.11-.21.23-.43.36-.65.67-1.09.9-2.84.8-4.97.14-1.18.21-2.37.21-3.59,0-8.59-3.42-16.34-8.91-21.83-.33-.42-.64-.78-.95-1.06-1.11-1.02-2.37-1.93-3.73-2.74-4.39-2.86-9.56-4.51-15.1-4.51-15.84,0-28.68,13.49-28.68,30.14s12.84,30.14,28.68,30.14c4.37,0,8.5-1.03,12.21-2.86,1.08.55,2.11,1.35,3.1,2.45,6.77,7.49,13.52,15.02,20.55,22.27,7.25,7.49,14.97,14.52,22.24,22,8.11,8.33,16,16.88,23.86,25.45,5.35,5.84,10.57,11.8,15.65,17.88,1.17,1.41,2.23,4.05,2.09,5.15-.66,5.57-.41,7.98-.47,11.98-.75,49.82-22.66,93.13-23.88,100.27-3.23,18.95-32.86,41.65-40.21,48.09-5.26,4.62-45.41,25.6-47.1,26.17-6.91,2.3-13.85,4.52-20.82,6.6-6.68,1.99-8.77.85-9.19-5.91-.5-8.1-.33-16.25-.33-24.38,0-6.96.45-13.94.13-20.88-.12-2.89.82-4.46,2.67-5.9,10.97-5.07,18.35-16.56,17.31-29.66-1.17-14.68-13.2-26.5-27.9-27.43-17.43-1.11-31.91,12.7-31.91,29.89,0,6.23,1.9,12.02,5.16,16.82,1.96,3.98,12.85,10.69,14.24,11.22,1.2,1.41,1.13,3.55,1.13,5.52.04,14.5.11,29,0,43.49-.09,13.19-.25,12.76-13.22,14.82-13,2.06-23.07-3.22-33.14-10.37-5.34-3.79-10.38-8.94-17.96-8.65-4.07.15-4.68-2.86-4.61-6.21.23-11.5.52-22.99.55-34.48.07-30.84.06-61.67,0-92.5-.02-14.65-.2-29.29-.39-43.93-.05-3.88,1.33-5.86,5.52-5.85,31.16.08,62.33.09,93.49.04,2.02,0,3.47.56,4.67,1.59,4.31,10.94,14.55,18.63,26.52,18.63,12.62,0,23.34-8.57,27.17-20.48.31-.6.61-1.21.89-1.82,2.48-5.31,1.58-13.19-1.47-19.15-4.26-11.04-14.56-18.83-26.59-18.83s-22.31,7.77-26.58,18.79c-2.17,1.56-5.44,2.19-8.22,2.19-18.65-.04-37.3-.51-55.96-.57-10.65-.04-21.31.48-31.96.65-6.58.11-7.63-.82-7.6-7.41.1-19.48.55-38.97.52-58.45-.05-34.5-.35-68.99-.53-103.48-.01-2.17-.03-4.34.12-6.5.24-3.39,1.59-4.8,5.5-4.45,6.44.6,12.97.39,19.46.32,1.44-.01,2.68.18,3.78.61,3.64,12.25,14.52,21.13,27.38,21.13,14.02,0,25.68-10.56,28.18-24.52,1.44-5.13,1.27-10.43-.81-16.03-.65-1.78-1.64-3.47-2.77-5.09-1.68-2.95-3.84-5.57-6.35-7.75-5.71-5.85-12.55-7.47-19.63-6.85-2.27.12-4.47.51-6.58,1.15-1.03.26-2.07.56-3.1.88-4.94,1.55-10.22,4.53-12.25,10.51-1.03,1.51-1.93,3.12-2.68,4.81-1.14.87-2.51,1.51-3.54,1.54-9.98.28-20.06.57-29.91-.68-3.43-.44-6.39-5.21-9.42-8.15-12.21-11.86-24.4-23.75-36.52-35.71-3.14-3.09-6.96-3.19-10.09-1.3-1.8,1.08-2.45,4.47-3.1,6.96-1.49,5.71.7,9.63,5.3,13.56,7.8,6.65,14.58,14.47,22.01,21.57,3.47,3.3,7.46,6.05,11.21,9.06,2.9,2.33,3.46,4.2.08,7.11-5.26,4.53-9.79,9.92-14.87,14.68-5.81,5.43-11.94,10.53-17.85,15.86-3.09,2.78-5.98,5.76-9.01,8.61-7.71,7.24-15.33,14.6-23.22,21.64-3.75,3.35-4.57,10.31-1.04,13.77,6.99,6.84,8.37,6.4,16.76-2.11,11-11.16,22.34-21.98,33.65-32.83,5.95-5.71,12.13-11.18,18.25-16.71.93-.85,2.12-1.41,4.36-2.85.47,6.32.52,30.92.47,37.9-.14,18.16.1,59.16.53,61.44,1.51,8.02-2.45,13.54-7.88,18.68-6.76,6.39-13.29,13.02-19.83,19.64-11.73,11.86-23.43,23.76-35.09,35.69-12.31,12.6-24.47,25.36-36.87,37.87-9,9.08-18.38,17.78-27.4,26.85-5.74,5.76-11.29,11.75-16.61,17.9-2.63,3.04-.87,10.15,2.66,12.8,3.04,2.28,9.32,1.75,12.03-1.04,10.29-10.6,20.55-21.23,30.87-31.79,2.18-2.23,4.34-4.69,6.99-6.15,1.39-.77,4.49-.31,5.72.8,12.04,10.95,38.73,37.64,40.8,38.58,3.61,1.65,7.85,2.68,11.13-.81,2.95-3.15,2.51-10.5-.89-13.94-5.58-5.63-11.48-10.95-17.2-16.45-7.08-6.79-14.16-13.58-21.14-20.47-2.57-2.53-1.86-4.89.64-7.28,8.75-8.36,17.54-16.69,26.04-25.32,12.3-12.49,24.34-25.25,36.54-37.85,2.62-2.7,5.45-5.2,9.32-8.86.21,3.03.46,4.77.43,6.5-.19,13.94-.5,27.88-.65,41.83-.15,13.62-.19,27.25-.19,40.87-.02,44.5-.06,89,.09,133.49.02,5.17-2,7.33-6.84,8.65-3.53.96-6.65,3.49-9.89,5.42-5.56,3.29-10.8,7.3-16.69,9.78-4.87,2.06-10.46,2.89-15.8,3.24-5.26.35-10.64-.35-15.92-1.03-4.58-.6-9.1-1.73-13.62-2.77-4.51-1.05-9.02-2.15-13.45-3.47-3.23-.97-6.3-2.47-9.51-3.52-2.65-.86-5.44-1.26-8.08-2.13-1.76-.58-3.61-6.09-2.33-7.33,12.6-12.19,25.32-24.25,38.01-36.34.96-.92,2.42-1.61,2.85-2.72,1.21-3.08,3.09-6.49,2.6-9.42-.35-2.11-3.82-4.36-6.36-5.28-4.55-1.65-10.18,1.48-13.52,5.01-8.34,8.82-17.15,17.2-25.74,25.78-5.05,5.04-10.05,10.14-15.07,15.22-4.13,4.18-6.95,4.25-11.77.93-4.21-2.9-43.32-20.97-64.28-62.84-11.17-22.31-17.34-48.6-18.52-56.75-.45-3.11-1.41-6.13-1.94-9.22-1.13-6.53-3.23-18.41-3.62-24.99-.52-8.8.1-12.3.64-21.1.19-3.14,1.82-6.81,3.99-9.1,9.24-9.78,18.82-19.24,28.48-28.6,14.6-14.17,29.47-28.05,44.03-42.25,10.19-9.95,20.03-20.25,30.08-30.34,3.13-3.14,6.88-5.76,9.57-9.22,4.44-5.71,4.47-11.31.87-13.86-3.89-2.77-13.17-1.23-16.64,2.75-2.07,2.38-3.99,4.93-6.27,7.09-6.47,6.14-13.18,12.05-19.63,18.2-7.46,7.1-14.68,14.45-22.14,21.55-4.21,3.99-6.02,3.94-10.06-.15-7.95-8.06-15.57-16.46-23.69-24.34-5.45-5.28-11.61-9.82-17.27-14.89-2.82-2.52-5.29-5.45-7.86-8.25-3.43-3.75-9.79-4.45-13.01-1.37-3.11,2.97-2.07,10,1.49,13.52,7.75,7.69,15.22,15.66,22.87,23.44,3.27,3.31,6.74,6.43,10.09,9.67,5.69,5.5,11.39,11,17.04,16.56,2.61,2.56,2,5.46-.82,7.98-9.26,8.26-18.46,16.6-27.47,25.14-4.42,4.18-8.41,8.82-12.5,13.34-2.73,3.03-5.01,2.38-8.2.3-5.65-3.69-11.78-6.63-17.67-9.94-2.29-1.28-4.6-2.57-6.73-4.1-8.2-5.9-16.91-11.26-24.32-18.04-7.17-6.57-12.58-11.68-20.33-20.06-4.94-5.34-20.71-32-24.02-49.89-.35-1.9-.27-4.99.96-6.26,5.64-5.83,11.77-11.19,17.7-16.76,6.15-5.78,12.38-11.49,18.38-17.43,13.55-13.43,27.03-26.95,40.46-40.51,5.81-5.87,11.37-12,17.15-17.91,6.26-6.41,9.43-5.83,14.4-.54,10.66,11.36,21.95,22.13,33.16,32.97,5.45,5.27,11.21,10.23,16.98,15.16,4.25,3.64,9.28,2.87,13.18-1.7,3.34-3.92,2.78-6.52-1.59-11.06-10.57-11-20.76-22.36-31.53-33.16-5.61-5.62-11.93-10.6-18.27-15.42-4.27-3.24-5.02-5.64-1.18-9.54,7.32-7.43,14.87-14.63,22.21-22.05,9.06-9.16,17.9-18.53,27.01-27.63,5.25-5.25,10.77-10.23,16.31-15.19,3.78-3.39,3.77-10.03-.24-13.16-6.19-4.84-8.75-4.48-14.46,1.08-14.05,13.68-28.41,27.04-42.34,40.85-11.19,11.09-21.83,22.74-32.9,33.96-6.64,6.73-13.67,13.08-20.47,19.65-8.94,8.64-17.86,17.3-26.74,26.01-15.77,15.45-31.49,30.95-47.24,46.43-.12.12-.24.23-.38.32-2.31,1.57-9.36-1.33-9.49-4.38-.87-20.55-2.02-41.09-2.02-61.66,0-64.87,23.68-95.59,26.22-99.44,9.23-13.98,19.69-26.8,32.37-38.02,10.95-9.68,22.66-17.73,35.84-23.82.76-.35,11.48-11.09,22.73,1.6,6.59,7.43,34.05,32.51,40.18,38.61,2.88,2.86,9.81,4.59,12.98,2.02,2.32-1.88,3.56-5.62,4.25-8.76.34-1.57-1.22-4.07-2.63-5.44-14.4-14.02-28.96-27.87-43.43-41.81-5.14-4.95-8.17-10.38-8.08-18.22.95-78.4,37.41-108.05,44.19-116.38,3.51-4.31,7.57-8.29,11.89-11.8,5.5-4.46,11.42-8.42,17.32-12.35,5.75-3.82,40.82-20.68,43.02-21.35,5.2-1.58,10.46-2.97,15.77-4.16.56-.12,2.09,1.56,2.24,2.55.5,3.28.76,6.62.77,9.95.08,29.33-.29,58.67.35,87.98.17,7.86-3.61,12.58-7.92,17.81-5.64,6.87-10.97,14.01-16.64,20.86-4.64,5.61-9.4,11.14-14.46,16.37-3.32,3.43-4.98,7.31-3.96,11.75.64,2.76,2.3,6.88,4.26,7.38,3.02.76,8,.1,9.87-1.99,6.9-7.72,12.62-16.48,19.27-24.45,5.09-6.09,10.8-11.69,16.56-17.17.7-.67,4.15.21,5.12,1.38,10.39,12.49,20.56,25.17,30.75,37.84,6.14,7.63,15.3,6.34,18.66-2.91.56-1.54-.32-4.21-1.45-5.65-6.95-8.89-14.16-17.58-21.3-26.32-1.04-1.29-2.18-2.51-3.22-3.8-5.19-6.42-10.49-12.76-15.44-19.37-1.07-1.42-1.18-3.79-1.19-5.73-.08-29.5,0-59-.14-88.49-.03-5.55-1.06-11.1-1.12-16.65-.02-1.81,1.07-4.35,2.49-5.33,11.65-8.08,24.83-7.34,38.03-5.95.93.1,1.79.85,2.68,1.31,10.15,5.2,20.37,10.28,30.37,15.75,1.59.87,3.15,3.52,3.15,5.35-.04,53.15-.33,106.31-.41,159.46,0,6.11.22,12.05-4.53,16.72-6.23,6.15-12.58,12.18-18.83,18.32-7.68,7.55-15.24,15.23-22.98,22.72-9.52,9.23-19.28,18.22-28.73,27.51-7.82,7.7-15.45,15.6-22.96,23.59-3.08,3.28-1.05,8.25,5,12.79,3.46,2.6,5.95,1.35,8.26-2.05,1.34-1.96,3.72-3.19,5.5-4.88,10.7-10.18,21.42-20.33,31.99-30.63,4.29-4.18,29.23-28.71,38.02-36.17,4.67-3.98,8.76-8.63,13.11-12.97,3.49-3.48,5.87-3.51,9.29.11,3.98,4.23,7.68,8.74,11.79,12.84,7.15,7.15,14.67,13.92,21.73,21.15,5.33,5.46,25.87,28.93,31.7,34.25,3.85,3.52,6.34,6.76,6.14,11.68-.38,1.55-.65,3.16-.8,4.79-2,10.14,1.71,19.2,9.54,26.01,5.18,4.5,11.05,6.76,16.99,6.89.67.05,1.35.08,2.03.08,12.39,0,22.94-8.25,26.96-19.8.96-2.24,1.53-4.64,1.58-7.25.1-1.01.15-2.05.15-3.09,0-16.64-12.84-30.14-28.69-30.14-4.82,0-9.35,1.26-13.34,3.46-2.79-.47-5.23-1.85-7.76-5.04-6.75-8.51-15.36-15.53-22.89-23.45-5.67-5.98-10.78-12.49-16.36-18.56-3.91-4.24-8.38-7.97-12.26-12.23-4.42-4.85-8.42-10.08-12.72-15.05-1.93-2.23-3.95-4.46-6.25-6.29-3.55-2.84-4.03-6.45-4.02-10.66.1-37.33-.2-145.63-.55-162.46-.1-4.68,1.57-6.94,6.02-8.85,9.56-4.1,19.91-7.29,28.02-13.83,14.68-11.81,40.92,2.87,45.17,3.54,4.66.74,6.99,2.97,6.76,8.04-.52,11.47-.82,22.95-.94,34.43-.06,5.24.78,10.49.63,15.72-.01.73-.34,1.58-.82,2.38-.6,1-1.45,1.91-2.3,2.38-6.62,3.65-12.52,7.66-13.93,15.88-.27,1.55-1.3,3.04-2.21,4.4-.04.1-.1.25-.14.35-.3,1.75-.46,3.54-.46,5.38,0,2.27.25,4.48.7,6.6,0,.01.01.02.01.02,1.1,1.48,2.66,3.31,2.68,5.01.03,1.43.29,2.73.72,3.92,1.53,2.66,3.44,5.04,5.64,7.08.81.59,1.62,1.1,2.41,1.54,3.66,2.04,7.4,4.32,11.39,5.47,1.67.32,3.39.5,5.14.5,1.44,0,2.85-.12,4.22-.33,1.66-.47,3.36-1.22,5.12-2.34,4.18-2.65,9.37-3.73,12.34-8.26,1.31-2.01,2.53-4.08,3.65-6.2.45-.86.44-1.95.76-2.89.51-1.48,1.37-3.15,2.14-4.76.3-1.74.46-3.53.46-5.36,0-.92-.04-1.82-.12-2.71-2.83-6.71-3.55-14.6-10.15-19.27-.54-.38-.92-1.14-1.49-1.31-3.84-1.08-5.95-2.86-7.07-5.03-2.15-4.17-.62-9.79-.72-14.73-.14-6.82-.29-37.67.54-38.41.96-.84,3.29-.98,4.59-.42,7.67,3.28,15.2,6.89,22.82,10.3,5.65,2.53,21.23,9.91,26.42,13.29,9.17,5.98,14.31,11.19,21.78,17.96,5.81,5.26,10.78,11.61,15.38,18.02,5.49,7.64,36.16,16.33,37.59,71.52.25,9.71.21,22.79-4.33,31.53-1.84,3.56-1.37,5.72-4.98,5.76-17.46.21-34.91.32-52.37.44-5.15.04-10.31-.04-15.46.01-8.97.07-17.96.52-26.9.09-1.73-.08-3.82-1.17-5.4-2.55-3.84-11.88-14.54-20.44-27.16-20.44s-23.07,8.36-27.03,20.03c-1.72,4.85-2.26,10.23-1.4,16.01,1.69,11.41,7.94,17.24,14.25,20.29,4.19,2.51,9.02,3.95,14.18,3.95,11.91,0,22.12-7.62,26.46-18.47,1.16-.69,2.62-1.17,3.73-1.18,23.16-.2,46.33-.24,69.49-.11,12.31.07,24.69-.15,36.9,1.14,6.5.68,12.82,4.01,19,6.66,5.44,2.34,10.76,5.1,15.81,8.21,12.41,7.62,24.93,15.21,34.16,26.83,7.62,9.59,15.46,19.06,22.21,29.23,4.33,6.52,7.05,14.15,10.1,21.44,1.7,4.07-1.59,4.35-4.4,4.38-7.83.06-15.66.04-23.49.04-21-.01-42.01-.3-63,.12-4.6.09-8-1.01-10.85-3.49-4.68-9.96-14.44-16.81-25.73-16.81-15.84,0-28.69,13.49-28.69,30.14s12.85,30.14,28.69,30.14c11.34,0,21.14-6.91,25.8-16.94,2.66-2.23,5.9-3.28,9.72-3.27,25,.09,49.99.31,74.98.42,7.17.04,14.33-.04,21.49-.24,4.13-.12,6.18,1.53,6.34,5.78.17,4.65.57,9.3,1.05,13.92.59,5.57,4.78,12.21,4.78,19.46,0,19.49-.03,38.99-.07,58.49Zm-91.67,17.64c0,6.3-5.11,11.41-11.41,11.41s-11.42-5.11-11.42-11.41,5.11-11.41,11.42-11.41,11.41,5.11,11.41,11.41Zm-118.05,39.99c0,6.3-5.11,11.41-11.41,11.41s-11.42-5.11-11.42-11.41,5.11-11.41,11.42-11.41,11.41,5.11,11.41,11.41Zm-21.7,108.75c0-6.3,5.11-11.41,11.42-11.41s11.41,5.11,11.41,11.41-5.11,11.41-11.41,11.41-11.42-5.11-11.42-11.41Zm-75.22-196.21c0-6.31,5.1-11.42,11.41-11.42s11.41,5.11,11.41,11.42-5.11,11.41-11.41,11.41-11.41-5.11-11.41-11.41Zm41.11-82.16c0-6.31,5.11-11.42,11.41-11.42s11.42,5.11,11.42,11.42-5.11,11.41-11.42,11.41-11.41-5.11-11.41-11.41Zm22.83-116.44c0,6.3-5.11,11.41-11.42,11.41s-11.41-5.11-11.41-11.41,5.11-11.41,11.41-11.41,11.42,5.11,11.42,11.41Zm110.53,119.95c0,6.31-5.11,11.41-11.41,11.41s-11.42-5.1-11.42-11.41,5.11-11.41,11.42-11.41,11.41,5.11,11.41,11.41Z" />
</svg>